<svg width="143" height="142" viewBox="0 0 143 142" fill="none" xmlns="http://www.w3.org/2000/svg">
<g clip-path="url(#clip0_1493_2826)">
<path d="M101.483 101.175H65.9834V53.1299L96.6789 69.9456L101.483 101.175Z" fill="#2F2E41"/>
<path d="M72.5422 92.6953C85.2713 92.6953 95.5902 82.3764 95.5902 69.6473C95.5902 56.9182 85.2713 46.5992 72.5422 46.5992C59.8131 46.5992 49.4941 56.9182 49.4941 69.6473C49.4941 82.3764 59.8131 92.6953 72.5422 92.6953Z" fill="#FFB6B6"/>
<path d="M59.311 96.1035L58.2698 85.578L79.0629 81.69L91.3411 111.585L69.9877 136.141L54.7734 106.246L59.311 96.1035Z" fill="#FFB6B6"/>
<path d="M122.264 120.404C122.005 120.673 121.74 120.94 121.476 121.204C120.638 122.043 119.784 122.857 118.911 123.647C105.832 135.509 89.051 142 71.2716 142C54.8803 142 39.3376 136.483 26.7632 126.327C26.7552 126.321 26.7498 126.316 26.7418 126.308C26.3601 126.001 25.9838 125.689 25.6074 125.371C25.6742 125.179 25.7462 124.989 25.8183 124.802C29.8621 114.267 37.8483 109.113 42.6955 106.858C45.0977 105.739 46.7286 105.331 46.7286 105.331L52.4193 95.0812L56.4257 102.555L59.3778 108.064L71.4905 130.664L81.9403 104.645L85.178 96.5786L86.0081 94.5127L89.9558 97.5849L93.6927 100.492L101.217 102.152L107.321 103.5L115.612 105.331C118.964 108.061 121.004 113.256 122.143 119.71C122.186 119.939 122.226 120.171 122.264 120.404Z" fill="#BD8D45"/>
<path d="M60.4182 43.4549C63.2257 38.7391 68.3819 35.5034 73.8494 35.0265C79.317 34.5496 84.9555 36.8437 88.5371 41.0023C90.6713 43.4805 92.0707 46.5154 94.151 49.0389C98.6278 54.4695 106.262 57.6448 108.217 64.4055C109.071 67.3558 108.645 70.5055 108.214 73.5462C107.844 76.1524 107.473 78.7586 107.103 81.3648C106.815 83.393 106.539 85.5311 107.3 87.4333C108.192 89.665 110.327 91.1266 111.708 93.0939C114.057 96.4415 113.885 101.343 111.307 104.518C110.19 105.894 108.708 106.933 107.536 108.264C106.364 109.595 105.494 111.415 105.985 113.119C106.925 116.384 112.045 117.167 112.607 120.518C112.894 122.231 111.711 123.942 110.16 124.725C108.61 125.508 106.785 125.531 105.061 125.322C98.507 124.525 92.439 120.43 89.2481 114.65C86.0572 108.871 85.8249 101.554 88.6426 95.5834C90.9569 90.6797 95.2582 86.3465 95.2114 80.9244C95.1859 77.9705 93.831 75.2115 92.5061 72.5713C89.7944 67.1673 87.0827 61.7634 84.371 56.3594C82.9185 53.4647 81.2328 50.3453 78.2423 49.1018C75.9312 48.1407 73.3088 48.5135 70.8369 48.9066C68.3649 49.2996 65.7463 49.6823 63.4283 48.7379C61.1103 47.7936 59.3588 44.9878 60.4632 42.7416" fill="#2F2E41"/>
<path d="M64.4576 43.7012C60.0047 42.2354 55.0095 44.5885 51.9949 48.1786C48.9802 51.7687 47.5179 56.3745 46.1248 60.8507C45.3269 63.4147 44.5289 65.9786 43.731 68.5426C42.9803 70.9545 42.2297 73.3665 41.4791 75.7784C40.5961 78.6154 39.706 81.6294 40.4306 84.5108C40.9545 86.594 42.3024 88.4856 42.3314 90.6334C42.3617 92.877 40.9567 94.8467 39.7253 96.7225C38.494 98.5983 37.3382 100.827 37.9248 102.993C38.8171 106.287 43.3972 108.098 43.1461 111.501C43.0623 112.637 42.4054 113.688 42.4173 114.827C42.4325 116.276 43.5671 117.528 44.8963 118.105C46.2256 118.683 47.7208 118.714 49.1698 118.689C53.6143 118.611 58.0508 118.083 62.3896 117.116C64.0589 116.744 65.7564 116.288 67.146 115.291C68.5355 114.294 69.5721 112.642 69.3913 110.941C69.1095 108.291 66.2601 106.787 64.8222 104.543C63.4098 102.34 63.4426 99.5469 62.8335 97.001C61.9965 93.5022 59.9294 90.4476 58.3776 87.2019C52.5436 74.9994 54.5859 59.4459 63.3722 49.1632C64.1491 48.254 64.9978 47.3394 65.3219 46.1883C65.6461 45.0372 65.2282 43.5706 64.1022 43.1679" fill="#2F2E41"/>
<path d="M121.476 20.7955C108.066 7.38557 90.236 -3.05176e-05 71.2715 -3.05176e-05C52.307 -3.05176e-05 34.4769 7.38557 21.067 20.7955C7.65708 34.2054 0.271484 52.0355 0.271484 71C0.271484 88.3095 6.42392 104.674 17.6985 117.596C18.7742 118.832 19.8979 120.035 21.067 121.204C21.3419 121.479 21.6195 121.754 21.8998 122.021C22.6472 122.745 23.4079 123.452 24.1819 124.138C24.6517 124.557 25.1268 124.968 25.6073 125.371C25.9836 125.689 26.36 126.001 26.7417 126.308C26.7497 126.316 26.755 126.321 26.763 126.327C39.3375 136.483 54.8801 142 71.2715 142C89.0508 142 105.832 135.509 118.911 123.647C119.784 122.857 120.638 122.043 121.476 121.204C121.74 120.94 122.004 120.673 122.263 120.404C122.984 119.662 123.683 118.906 124.367 118.14C135.943 105.136 142.271 88.5551 142.271 71C142.271 52.0355 134.886 34.2054 121.476 20.7955ZM124.193 117.476C123.526 118.234 122.843 118.981 122.143 119.71C121.054 120.844 119.93 121.944 118.769 123.003C118.329 123.409 117.883 123.804 117.432 124.197C112.876 128.16 107.804 131.545 102.335 134.241C100.416 135.188 98.449 136.05 96.4365 136.822C88.6184 139.822 80.1331 141.466 71.2715 141.466C62.7195 141.466 54.5198 139.934 46.9313 137.131C43.8164 135.984 40.8055 134.62 37.9148 133.058C37.4904 132.829 37.0687 132.596 36.6496 132.359C34.4449 131.11 32.3122 129.746 30.265 128.272C28.7355 127.175 27.2515 126.02 25.8181 124.802C25.3163 124.378 24.8199 123.948 24.3314 123.508C23.536 122.801 22.7566 122.072 21.9959 121.325C20.5545 119.913 19.1772 118.442 17.8613 116.912C7.23536 104.57 0.805319 88.5231 0.805319 71C0.805319 32.1448 32.4163 0.533804 71.2715 0.533804C110.127 0.533804 141.738 32.1448 141.738 71C141.738 88.7927 135.11 105.064 124.193 117.476Z" fill="#3F3D56"/>
<path d="M19.0215 16.75H29.7715V23.25H19.0215H18.5215V23.75V34.5H12.0215V23.75V23.25H11.5215H0.771484V16.75H11.5215H12.0215V16.25V5.49997H18.5215V16.25V16.75H19.0215Z" fill="#FCBC5C" stroke="#2F2E41"/>
</g>
<defs>
<clipPath id="clip0_1493_2826">
<rect width="142" height="142" fill="white" transform="translate(0.271484 -3.05176e-05)"/>
</clipPath>
</defs>
</svg>
