<svg width="175" height="128" viewBox="0 0 175 128" fill="none" xmlns="http://www.w3.org/2000/svg">
  <path
    d="M47.9163 127.427C37.1025 126.728 26.8275 123.169 18.5585 117.259C10.2896 111.35 4.44933 103.391 1.8718 94.5193C-0.705728 85.6479 0.111228 76.3174 4.20602 67.8602C8.30081 59.403 15.4641 52.2516 24.6729 47.427C26.6324 34.5609 34.0922 22.737 45.6562 14.1681C57.2202 5.59909 72.096 0.872314 87.4996 0.872314C102.903 0.872314 117.779 5.59909 129.343 14.1681C140.907 22.737 148.367 34.5609 150.326 47.427C159.535 52.2516 166.698 59.403 170.793 67.8602C174.888 76.3174 175.705 85.6479 173.127 94.5193C170.55 103.391 164.71 111.35 156.441 117.259C148.172 123.169 137.897 126.728 127.083 127.427V127.554H47.9163V127.427ZM95.4163 74.2204H119.166L87.4996 40.887L55.8329 74.2204H79.5829V100.887H95.4163V74.2204Z"
    fill="#FCBC5C" />
</svg>
