<svg viewBox="0 0 33 32" fill="none" xmlns="http://www.w3.org/2000/svg">
  <path
    d="M12.2412 0C15.3935 0 18.4166 1.25224 20.6457 3.48124C22.8747 5.71025 24.1269 8.73343 24.1269 11.8857C24.1269 14.8297 23.048 17.536 21.2743 19.6206L21.768 20.1143H23.2126L32.3555 29.2571L29.6126 32L20.4698 22.8571V21.4126L19.976 20.9189C17.8915 22.6926 15.1852 23.7714 12.2412 23.7714C9.0889 23.7714 6.06572 22.5192 3.83671 20.2902C1.60771 18.0612 0.355469 15.038 0.355469 11.8857C0.355469 8.73343 1.60771 5.71025 3.83671 3.48124C6.06572 1.25224 9.0889 0 12.2412 0ZM12.2412 3.65714C7.66975 3.65714 4.01261 7.31429 4.01261 11.8857C4.01261 16.4571 7.66975 20.1143 12.2412 20.1143C16.8126 20.1143 20.4698 16.4571 20.4698 11.8857C20.4698 7.31429 16.8126 3.65714 12.2412 3.65714Z"
    fill="currentColor" />
</svg>
