<svg width="25" height="24" viewBox="0 0 25 24" fill="none" xmlns="http://www.w3.org/2000/svg">
<path d="M12.5 4.5C7.5 4.5 3.2 7.6 1.5 12C3.2 16.4 7.5 19.5 12.5 19.5H13.6C13.5 19.2 13.5 18.9 13.5 18.5C13.5 18.1 13.5 17.8 13.6 17.4C13.2 17.4 12.9 17.5 12.5 17.5C8.7 17.5 5.3 15.4 3.7 12C5.3 8.6 8.7 6.5 12.5 6.5C16.3 6.5 19.7 8.6 21.3 12C21.2 12.2 21 12.4 20.9 12.7C21.6 12.9 22.2 13.1 22.8 13.5C23.1 13 23.3 12.5 23.5 12C21.8 7.6 17.5 4.5 12.5 4.5ZM12.5 9C10.8 9 9.5 10.3 9.5 12C9.5 13.7 10.8 15 12.5 15C14.2 15 15.5 13.7 15.5 12C15.5 10.3 14.2 9 12.5 9ZM19.5 21V19H15.5V17H19.5V15L22.5 18L19.5 21Z" fill="#FCBC5C"/>
</svg>
