<svg width="32" height="32" viewBox="0 0 32 32" fill="none" xmlns="http://www.w3.org/2000/svg">
<path d="M11.8857 0C15.038 0 18.0612 1.25224 20.2902 3.48124C22.5192 5.71025 23.7714 8.73343 23.7714 11.8857C23.7714 14.8297 22.6926 17.536 20.9189 19.6206L21.4126 20.1143H22.8571L32 29.2571L29.2571 32L20.1143 22.8571V21.4126L19.6206 20.9189C17.536 22.6926 14.8297 23.7714 11.8857 23.7714C8.73343 23.7714 5.71025 22.5192 3.48124 20.2902C1.25224 18.0612 0 15.038 0 11.8857C0 8.73343 1.25224 5.71025 3.48124 3.48124C5.71025 1.25224 8.73343 0 11.8857 0ZM11.8857 3.65714C7.31429 3.65714 3.65714 7.31429 3.65714 11.8857C3.65714 16.4571 7.31429 20.1143 11.8857 20.1143C16.4571 20.1143 20.1143 16.4571 20.1143 11.8857C20.1143 7.31429 16.4571 3.65714 11.8857 3.65714Z" fill="#FCBC5C"/>
</svg>
