<svg width="16" height="18" viewBox="0 0 16 18" fill="none" xmlns="http://www.w3.org/2000/svg">
<path d="M7.00577 15.8049C7.15994 16.4371 7.40831 17.0254 7.74232 17.561H1.7129C0.762242 17.561 0 16.7795 0 15.8049V1.7561C0 0.790244 0.762242 0 1.7129 0H11.9903C12.941 0 13.7032 0.790244 13.7032 1.7561V8.93854C13.275 8.84195 12.8468 8.78049 12.4185 8.78049C12.273 8.78049 12.1359 8.78049 11.9903 8.80683V1.7561H7.70807V8.78049L5.56694 6.80488L3.42581 8.78049V1.7561H1.7129V15.8049H7.00577ZM15.4161 14.4878V10.9756L14.4141 12.0029C13.7974 11.3707 12.941 10.9756 11.9903 10.9756C10.0976 10.9756 8.56452 12.5473 8.56452 14.4878C8.56452 16.4283 10.0976 18 11.9903 18C13.4292 18 14.6625 17.0956 15.1678 15.8049H13.7032C13.3093 16.3405 12.6926 16.6829 11.9903 16.6829C10.8084 16.6829 9.84919 15.6995 9.84919 14.4878C9.84919 13.2761 10.8084 12.2927 11.9903 12.2927C12.5813 12.2927 13.1208 12.5385 13.5062 12.9337L11.9903 14.4878H15.4161Z" fill="currentColor"/>
</svg>
