<svg width="41" height="40" viewBox="0 0 41 40" fill="none" xmlns="http://www.w3.org/2000/svg">
<rect x="0.132812" width="39.9968" height="40" rx="5" fill="white"/>
<path d="M18.8983 12.976C19.4646 13.7645 19.7477 14.705 19.7477 15.8051C19.7477 16.9356 19.4646 17.8476 18.8908 18.5354C18.5683 18.9173 18.0976 19.2707 17.4751 19.588C18.4201 19.9338 19.1327 20.4791 19.6184 21.2239C20.0984 21.9687 20.3403 22.875 20.3403 23.939C20.3403 25.0372 20.0646 26.0233 19.5134 26.8935C19.1646 27.4692 18.7258 27.9575 18.2007 28.3508C17.5802 28.8163 16.8644 29.1344 16.1062 29.2818C15.2999 29.449 14.4279 29.5307 13.4866 29.5307H5.13281V11H14.0923C16.3537 11.0342 17.9532 11.6916 18.8983 12.976ZM8.82874 14.2186V18.3074H13.3366C14.1392 18.3074 14.7936 18.1535 15.298 17.8476C15.7987 17.5417 16.0518 16.9983 16.0518 16.2212C16.0518 15.3548 15.7199 14.7867 15.0561 14.5074C14.4823 14.3155 13.751 14.2186 12.8641 14.2186H8.82874ZM8.82874 21.374V26.3159H13.331C14.1354 26.3159 14.7636 26.2076 15.2099 25.9891C16.0237 25.5825 16.4287 24.8149 16.4287 23.6749C16.4287 22.7078 16.0368 22.0466 15.2493 21.6856C14.8067 21.4861 14.1879 21.3797 13.3929 21.374H8.82874ZM31.5481 16.1072C32.5063 16.5347 33.2938 17.2111 33.9145 18.1345C34.4808 18.9496 34.8446 19.8939 35.0096 20.9674C35.1071 21.5944 35.1446 22.5045 35.1296 23.6882H25.1407C25.2007 25.0619 25.6732 26.0271 26.5771 26.5781C27.1246 26.922 27.7809 27.0949 28.5553 27.0949C29.3692 27.0949 30.033 26.8859 30.543 26.4679C30.8243 26.2399 31.0699 25.9264 31.2818 25.5255H34.9421C34.8446 26.3368 34.4002 27.1633 33.6145 28.0031C32.3863 29.3331 30.6668 30 28.456 30C26.6296 30 25.0207 29.4395 23.6274 28.3147C22.2286 27.1918 21.5329 25.3621 21.5329 22.8294C21.5329 20.4544 22.1629 18.6323 23.4212 17.365C24.6831 16.1015 26.3145 15.465 28.3228 15.465C29.5192 15.4631 30.5936 15.6778 31.5481 16.1072ZM26.187 19.2023C25.6807 19.7248 25.362 20.4316 25.2307 21.3227H31.4093C31.3437 20.3708 31.023 19.6507 30.4549 19.1548C29.8792 18.6627 29.1723 18.4176 28.3266 18.4176C27.4096 18.4195 26.6933 18.6817 26.187 19.2023ZM24.3044 14.1711H32.2494V11.8645H24.3044V14.1711Z" fill="#1976D2"/>
</svg>
