<svg width="22" height="22" viewBox="0 0 24 22" fill="none" xmlns="http://www.w3.org/2000/svg">
<path d="M20.545 0.193115H17.226H6.65444H3.33546C2.68342 0.193115 2.05809 0.439553 1.59703 0.878217C1.13597 1.31688 0.876953 1.91183 0.876953 2.5322V5.68996V15.865V18.9058C0.876953 19.5261 1.13597 20.1211 1.59703 20.5598C2.05809 20.9984 2.68342 21.2449 3.33546 21.2449H6.65444H17.3489H20.545C21.197 21.2449 21.8224 20.9984 22.2834 20.5598C22.7445 20.1211 23.0035 19.5261 23.0035 18.9058V15.748V5.68996V2.5322C23.0035 1.91183 22.7445 1.31688 22.2834 0.878217C21.8224 0.439553 21.197 0.193115 20.545 0.193115ZM16.3655 16.5667L11.9402 12.3563L7.51492 16.5667L5.79396 14.9293L10.2193 10.719L5.79396 6.50864L7.51492 4.87128L11.9402 9.08163L16.3655 4.87128L18.0865 6.50864L13.6612 10.719L18.0865 14.9293L16.3655 16.5667Z" fill="#212C4F"/>
</svg>
