<svg width="50" height="50" viewBox="0 0 50 50" fill="none" xmlns="http://www.w3.org/2000/svg">
  <path
    d="M49.5 25C49.5 38.531 38.531 49.5 25 49.5C11.469 49.5 0.5 38.531 0.5 25C0.5 11.469 11.469 0.5 25 0.5C38.531 0.5 49.5 11.469 49.5 25Z"
    fill="#3B5998" stroke="#E1E4EC" />
  <path
    d="M31.3908 10.2176V14.7947H28.2583C27.8888 14.7947 27.4033 14.8855 27.001 15.2155C26.5799 15.5609 26.3247 16.1067 26.3247 16.8603V20.2405V20.7405H26.8247H31.3216L30.834 25.4787H26.8242H26.3242V25.9787V41.8216H20.5655V25.9787V25.4787H20.0655H17.3511V20.7352H20.0655H20.5655V20.2352V16.5185C20.5655 15.2545 20.868 13.6667 21.7941 12.4083C22.7009 11.176 24.2489 10.199 26.8834 10.1987C26.8837 10.1987 26.8841 10.1987 26.8844 10.1987L31.3908 10.2176Z"
    fill="white" stroke="#E1E4EC" />
</svg>
