<svg width="40" height="40" viewBox="0 0 40 40" fill="none" xmlns="http://www.w3.org/2000/svg">
  <path fill-rule="evenodd" clip-rule="evenodd"
    d="M20.0287 0C12.6871 0 6.7334 5.95219 6.7334 13.2953C6.7334 19.1694 10.5428 24.1531 15.8256 25.9109C16.49 26.0341 16.734 25.6225 16.734 25.2712C16.734 24.9544 16.7215 23.9069 16.7159 22.7962C13.0168 23.6003 12.2365 21.2275 12.2365 21.2275C11.6318 19.6906 10.7603 19.2819 10.7603 19.2819C9.55402 18.4569 10.8509 18.4737 10.8509 18.4737C12.1862 18.5675 12.8893 19.8441 12.8893 19.8441C14.075 21.8766 15.9996 21.2888 16.7581 20.9491C16.8778 20.0897 17.2221 19.5028 17.6025 19.1709C14.6493 18.835 11.545 17.6947 11.545 12.6003C11.545 11.1487 12.0643 9.96281 12.915 9.03156C12.7768 8.69656 12.3218 7.34406 13.0437 5.51281C13.0437 5.51281 14.16 5.15594 16.7 6.87625C17.7609 6.58156 18.8984 6.43375 20.0281 6.42875C21.1581 6.43406 22.2962 6.58188 23.3587 6.87625C25.8962 5.15625 27.0112 5.51312 27.0112 5.51312C27.735 7.34438 27.28 8.69656 27.1418 9.03188C27.9943 9.9625 28.51 11.1487 28.51 12.6006C28.51 17.7069 25.3996 18.8312 22.439 19.16C22.9159 19.5725 23.3409 20.3819 23.3409 21.6225C23.3409 23.4013 23.3259 24.8328 23.3259 25.2706C23.3259 25.6237 23.5653 26.0387 24.239 25.9081C29.519 24.1481 33.3234 19.1663 33.3234 13.2941C33.324 5.9525 27.3715 0 20.0287 0Z"
    fill="#181616" />
  <path
    d="M11.7695 19.0886C11.7398 19.1548 11.6357 19.1745 11.5414 19.1292C11.4445 19.0854 11.3907 18.9958 11.422 18.9292C11.4501 18.8617 11.5545 18.8426 11.651 18.8879C11.7479 18.9317 11.8026 19.0223 11.7695 19.0886ZM12.3079 19.6898C12.2445 19.7483 12.1204 19.7211 12.036 19.6279C11.9492 19.5351 11.9329 19.4111 11.9973 19.3517C12.0623 19.2929 12.1826 19.3204 12.2692 19.4133C12.3567 19.507 12.3739 19.6298 12.3076 19.6895L12.3079 19.6898ZM12.832 20.4548C12.7507 20.5117 12.6173 20.4586 12.5351 20.3401C12.4532 20.2223 12.4532 20.0808 12.5367 20.0236C12.6192 19.9667 12.7504 20.0179 12.8335 20.1351C12.9154 20.2554 12.9154 20.3973 12.832 20.4548ZM13.5501 21.1948C13.4773 21.2751 13.322 21.2536 13.2085 21.1439C13.0923 21.0367 13.0601 20.8845 13.1329 20.8042C13.207 20.7239 13.3629 20.7464 13.4773 20.8551C13.5929 20.962 13.6279 21.1148 13.5501 21.1948ZM14.5414 21.6242C14.5089 21.7286 14.3595 21.7758 14.2089 21.7317C14.0582 21.6861 13.9601 21.5642 13.9901 21.4592C14.0214 21.3542 14.172 21.3051 14.3235 21.3523C14.4735 21.3973 14.5723 21.5179 14.5414 21.6242ZM15.6289 21.7039C15.6329 21.8133 15.5051 21.9045 15.347 21.9064C15.1882 21.9101 15.0595 21.8214 15.0576 21.7133C15.0576 21.6026 15.1826 21.5126 15.3414 21.5101C15.4995 21.507 15.6289 21.5951 15.6289 21.7039ZM16.6414 21.5317C16.6601 21.6386 16.5507 21.7486 16.3935 21.7776C16.2392 21.8064 16.0967 21.7401 16.0767 21.6339C16.0579 21.5245 16.1695 21.4151 16.3235 21.3864C16.4807 21.3589 16.6214 21.4229 16.6414 21.5317Z"
    fill="#181616" />
  <path
    d="M7.79457 33.3719H4.45082C4.40938 33.3719 4.36964 33.3883 4.34033 33.4176C4.31103 33.4469 4.29457 33.4867 4.29457 33.5281V35.1631C4.29457 35.2046 4.31103 35.2443 4.34033 35.2736C4.36964 35.3029 4.40938 35.3194 4.45082 35.3194H5.75488V37.3506C5.75488 37.3506 5.46207 37.4506 4.65176 37.4506C3.69676 37.4506 2.36207 37.1019 2.36207 34.1669C2.36207 31.2316 3.75207 30.845 5.05707 30.845C6.18645 30.845 6.6727 31.0438 6.9827 31.1397C7.07957 31.1691 7.1702 31.0722 7.1702 30.9859L7.54301 29.4063C7.54361 29.3826 7.53847 29.3592 7.52802 29.3379C7.51757 29.3167 7.50212 29.2983 7.48301 29.2844C7.35707 29.1944 6.5902 28.7656 4.65238 28.7656C2.41988 28.7656 0.129883 29.715 0.129883 34.2813C0.129883 38.8469 2.75176 39.5272 4.96113 39.5272C6.79051 39.5272 7.9002 38.7453 7.9002 38.7453C7.94582 38.7203 7.95082 38.6562 7.95082 38.6266V33.5278C7.95082 33.4864 7.93436 33.4466 7.90506 33.4173C7.87575 33.388 7.83601 33.3719 7.79457 33.3719ZM24.873 29.1556H22.9899C22.9693 29.1557 22.949 29.1598 22.9301 29.1678C22.9111 29.1757 22.8939 29.1873 22.8795 29.2019C22.865 29.2165 22.8536 29.2339 22.8458 29.2529C22.8381 29.2719 22.8341 29.2923 22.8343 29.3128L22.8349 32.9516H19.8999V29.3128C19.9 29.2923 19.8961 29.272 19.8883 29.2529C19.8806 29.2339 19.8692 29.2166 19.8548 29.2021C19.8404 29.1875 19.8232 29.1758 19.8043 29.1679C19.7854 29.1599 19.7651 29.1557 19.7446 29.1556H17.8618C17.8412 29.1557 17.8209 29.1598 17.8019 29.1678C17.783 29.1757 17.7658 29.1873 17.7513 29.2019C17.7369 29.2165 17.7255 29.2339 17.7177 29.2529C17.7099 29.2719 17.706 29.2923 17.7061 29.3128V39.1659C17.7061 39.2525 17.7761 39.3231 17.8618 39.3231H19.7446C19.7651 39.323 19.7854 39.3188 19.8044 39.3108C19.8233 39.3029 19.8405 39.2912 19.8549 39.2766C19.8693 39.262 19.8807 39.2446 19.8884 39.2256C19.8962 39.2065 19.9 39.1862 19.8999 39.1656V34.9513H22.8349L22.8299 39.1656C22.8299 39.2525 22.8999 39.3231 22.9861 39.3231H24.873C24.8936 39.323 24.9139 39.3188 24.9328 39.3108C24.9517 39.3029 24.9689 39.2912 24.9833 39.2766C24.9978 39.262 25.0092 39.2446 25.0169 39.2256C25.0246 39.2065 25.0285 39.1862 25.0283 39.1656V29.3125C25.0283 29.2256 24.9596 29.1556 24.873 29.1556ZM10.1336 29.3797C9.46363 29.3797 8.91988 29.9275 8.91988 30.6056C8.91988 31.2828 9.46363 31.8322 10.1336 31.8322C10.8043 31.8322 11.3477 31.2828 11.3477 30.6056C11.3477 29.9275 10.8039 29.3797 10.1336 29.3797ZM11.0574 32.3822H9.18051C9.09426 32.3822 9.01738 32.4709 9.01738 32.5572V39.0734C9.01738 39.265 9.13676 39.3219 9.29113 39.3219H10.9818C11.1677 39.3219 11.213 39.2306 11.213 39.0703V37.0872V32.5394C11.2131 32.5189 11.2091 32.4985 11.2014 32.4795C11.1936 32.4605 11.1821 32.4433 11.1677 32.4287C11.1532 32.4141 11.1361 32.4026 11.1171 32.3946C11.0982 32.3867 11.0779 32.3823 11.0574 32.3822ZM32.1843 32.3969H30.3155C30.295 32.397 30.2747 32.4012 30.2558 32.4092C30.2369 32.4173 30.2198 32.4289 30.2054 32.4435C30.191 32.4581 30.1796 32.4755 30.1719 32.4945C30.1642 32.5135 30.1603 32.5339 30.1605 32.5544V37.3856C30.1605 37.3856 29.6855 37.7325 29.0121 37.7325C28.3386 37.7325 28.1599 37.4272 28.1599 36.7675V32.5544C28.16 32.5338 28.1562 32.5135 28.1484 32.4944C28.1407 32.4754 28.1293 32.458 28.1149 32.4434C28.1005 32.4288 28.0833 32.4171 28.0644 32.4092C28.0454 32.4012 28.0251 32.397 28.0046 32.3969H26.1083C26.0668 32.3972 26.0271 32.414 25.998 32.4435C25.9688 32.473 25.9525 32.5129 25.9527 32.5544V37.0863C25.9527 39.0456 27.0449 39.525 28.5471 39.525C29.7796 39.525 30.7733 38.8438 30.7733 38.8438C30.7733 38.8438 30.8202 39.2031 30.8421 39.2453C30.8639 39.2878 30.9193 39.3306 30.9796 39.3306L32.1858 39.3253C32.2064 39.3252 32.2268 39.3211 32.2458 39.3131C32.2648 39.3052 32.2821 39.2935 32.2966 39.2789C32.3111 39.2643 32.3226 39.247 32.3304 39.2279C32.3382 39.2088 32.3422 39.1884 32.3421 39.1678L32.3411 32.5534C32.341 32.512 32.3245 32.4723 32.2952 32.4429C32.266 32.4135 32.2263 32.3969 32.1849 32.3966L32.1843 32.3969ZM37.2911 32.1756C36.2299 32.1756 35.508 32.6491 35.508 32.6491V29.3125C35.5081 29.292 35.5042 29.2716 35.4965 29.2526C35.4887 29.2336 35.4773 29.2163 35.4629 29.2017C35.4485 29.1871 35.4313 29.1755 35.4124 29.1676C35.3935 29.1596 35.3732 29.1554 35.3527 29.1553H33.4649C33.4443 29.1553 33.4239 29.1594 33.4049 29.1673C33.3859 29.1752 33.3686 29.1868 33.3541 29.2014C33.3395 29.216 33.3281 29.2334 33.3203 29.2524C33.3125 29.2715 33.3085 29.2919 33.3086 29.3125V39.1656C33.3085 39.1862 33.3125 39.2066 33.3203 39.2257C33.3281 39.2448 33.3395 39.2621 33.3541 39.2767C33.3686 39.2913 33.3859 39.3029 33.4049 39.3108C33.4239 39.3187 33.4443 39.3228 33.4649 39.3228H34.7749C34.8343 39.3228 34.8786 39.2925 34.9114 39.2391C34.9436 39.1859 34.9908 38.7847 34.9908 38.7847C34.9908 38.7847 35.7627 39.5159 37.2246 39.5159C38.9402 39.5159 39.9246 38.6459 39.9246 35.6091C39.9246 32.5722 38.3527 32.1753 37.2908 32.1753L37.2911 32.1756ZM36.5536 37.7269C35.9058 37.7072 35.4661 37.4131 35.4661 37.4131V34.2928C35.4661 34.2928 35.8999 34.0272 36.4318 33.9791C37.1046 33.9188 37.753 34.1222 37.753 35.7272C37.753 37.42 37.4608 37.7541 36.5539 37.7266L36.5536 37.7269ZM16.6508 37.69C16.5686 37.69 16.358 37.7234 16.1414 37.7234C15.4477 37.7234 15.2124 37.4009 15.2124 36.9834V34.2128H16.6249C16.6455 34.2128 16.6659 34.2087 16.685 34.2008C16.704 34.1929 16.7213 34.1812 16.7358 34.1666C16.7503 34.152 16.7618 34.1346 16.7696 34.1155C16.7774 34.0964 16.7813 34.0759 16.7811 34.0553V32.5378C16.7812 32.5172 16.7772 32.4969 16.7694 32.4778C16.7616 32.4588 16.7501 32.4415 16.7356 32.4269C16.7211 32.4123 16.7038 32.4008 16.6848 32.3929C16.6658 32.385 16.6455 32.3809 16.6249 32.3809H15.2124L15.2102 30.5153C15.2102 30.4444 15.1739 30.4091 15.0921 30.4091H13.1671C13.0927 30.4091 13.0524 30.4422 13.0524 30.5138V32.4419C13.0524 32.4419 12.0877 32.6747 12.0227 32.6934C11.9902 32.7029 11.9617 32.7226 11.9414 32.7497C11.9212 32.7767 11.9102 32.8096 11.9102 32.8434V34.055C11.9101 34.0755 11.914 34.0959 11.9217 34.1149C11.9295 34.1339 11.9409 34.1512 11.9553 34.1658C11.9697 34.1804 11.9869 34.192 12.0058 34.1999C12.0247 34.2079 12.045 34.2121 12.0655 34.2122H13.0524V37.1272C13.0524 39.2928 14.5711 39.5053 15.5961 39.5053C16.0639 39.5053 16.6243 39.3553 16.7168 39.3209C16.773 39.3 16.8052 39.2422 16.8052 39.1794L16.8064 37.8466C16.8058 37.8053 16.7892 37.7658 16.76 37.7366C16.7309 37.7073 16.6915 37.6905 16.6502 37.6897L16.6508 37.69Z"
    fill="#100E0F" />
</svg>
