<svg viewBox="0 0 24 32" fill="none" xmlns="http://www.w3.org/2000/svg">
<path d="M23.3554 25.8972V27.4198H0.611328V25.8972L3.13845 22.8519V13.716C3.13845 8.99581 5.70348 4.83899 9.45625 3.49906C9.45625 3.3468 9.45625 3.20976 9.45625 3.0575C9.45625 2.24983 9.7225 1.47525 10.1964 0.904151C10.6704 0.333049 11.3131 0.012207 11.9834 0.012207C12.6536 0.012207 13.2964 0.333049 13.7703 0.904151C14.2442 1.47525 14.5105 2.24983 14.5105 3.0575C14.5105 3.20976 14.5105 3.3468 14.5105 3.49906C18.2633 4.83899 20.8283 8.99581 20.8283 13.716V22.8519L23.3554 25.8972ZM14.5105 28.9424C14.5105 29.7501 14.2442 30.5247 13.7703 31.0958C13.2964 31.6669 12.6536 31.9877 11.9834 31.9877C11.3131 31.9877 10.6704 31.6669 10.1964 31.0958C9.7225 30.5247 9.45625 29.7501 9.45625 28.9424" fill="currentColor"/>
</svg>
