<svg width="50" height="50" viewBox="0 0 50 50" fill="none" xmlns="http://www.w3.org/2000/svg">
  <path
    d="M49.5 25C49.5 38.531 38.531 49.5 25 49.5C11.469 49.5 0.5 38.531 0.5 25C0.5 11.469 11.469 0.5 25 0.5C38.531 0.5 49.5 11.469 49.5 25Z"
    fill="#007AB9" stroke="#E1E4EC" />
  <path
    d="M27.1723 27.2806V36.8183H22.1985L22.1994 36.6175C22.2015 36.1688 22.2043 35.5259 22.2074 34.7492C22.2137 33.1958 22.2212 31.107 22.2262 28.9654C22.2349 25.259 22.2362 21.371 22.2097 19.8458H27.1727V21.7445V21.7503L26.7814 22.4515H27.6331H27.6727H28.1727V22.0425C28.5463 21.4831 29.0384 20.8594 29.7575 20.3609C30.5222 19.8307 31.5702 19.4238 33.0584 19.4238C34.9128 19.4238 36.4886 20.0266 37.6046 21.237C38.7244 22.4513 39.4374 24.3383 39.4374 27.0118V36.8188H34.4617V27.7026C34.4617 26.45 34.2404 25.3172 33.6732 24.484C33.0842 23.619 32.1645 23.1392 30.9353 23.1392C29.0137 23.1392 27.8879 24.4435 27.4069 25.6361C27.2098 26.1183 27.1723 26.738 27.1723 27.2806ZM12.563 13.7872C12.563 13.0368 12.8453 12.3944 13.3301 11.9376C13.8159 11.4798 14.5336 11.1824 15.4446 11.1824C16.3543 11.1824 17.0494 11.4787 17.5191 11.933C17.9886 12.3873 18.2667 13.0318 18.2851 13.7928C18.2838 14.5248 18.0101 15.1664 17.5305 15.6266C17.05 16.0876 16.334 16.3934 15.4049 16.3934H15.3661C13.6257 16.3934 12.563 15.2248 12.563 13.7872ZM17.8921 19.8458V36.8188H12.9182V19.8458H17.8921Z"
    fill="#F1F2F2" stroke="#E1E4EC" />
</svg>
