<svg xmlns="http://www.w3.org/2000/svg" fill="none" viewBox="0 0 50 50">
  <mask id="a" fill="#fff">
    <path d="M25 50a25 25 0 1 0 0-50 25 25 0 0 0 0 50Z" />
  </mask>
  <path fill="#007AB9" stroke="#EBEDF3" stroke-width="2" d="M25 50a25 25 0 1 0 0-50 25 25 0 0 0 0 50Z" mask="url(#a)" />
  <mask id="b" fill="#fff">
    <path
      d="M39.67 28.3v10.3h-6.15V29c0-2.41-.88-4.06-3.11-4.06a3.35 3.35 0 0 0-3.36 3.64V38.6h-6.14s.08-16.26 0-17.95h6.14v2.55c0 .02-.03.04-.04.05h.04v-.05a6.13 6.13 0 0 1 5.54-2.97c4.05 0 7.08 2.57 7.08 8.08ZM14.47 12c-2.1 0-3.47 1.34-3.47 3.1 0 1.72 1.34 3.1 3.4 3.1h.04c2.14 0 3.47-1.38 3.47-3.1-.04-1.76-1.33-3.1-3.43-3.1Zm-3.1 26.6h6.14V20.65h-6.14V38.6Z" />
  </mask>
  <path fill="#F1F2F2"
    d="M39.67 28.3v10.3h-6.15V29c0-2.41-.88-4.06-3.11-4.06a3.35 3.35 0 0 0-3.36 3.64V38.6h-6.14s.08-16.26 0-17.95h6.14v2.55c0 .02-.03.04-.04.05h.04v-.05a6.13 6.13 0 0 1 5.54-2.97c4.05 0 7.08 2.57 7.08 8.08ZM14.47 12c-2.1 0-3.47 1.34-3.47 3.1 0 1.72 1.34 3.1 3.4 3.1h.04c2.14 0 3.47-1.38 3.47-3.1-.04-1.76-1.33-3.1-3.43-3.1Zm-3.1 26.6h6.14V20.65h-6.14V38.6Z" />
  <path fill="#EBEDF3"
    d="M39.67 38.6v1h1v-1h-1Zm-6.15 0h-1v1h1v-1Zm-6.26-11.48.92.4v-.01l-.92-.39Zm-.2 11.48v1h1v-1h-1Zm-6.15 0h-1v1h1v-1Zm0-17.95v-1h-1.05l.05 1.05 1-.05Zm6.14 0h1v-1h-1v1Zm-.04 2.6-.86-.5-.86 1.5H27v-1Zm.04 0v1h1v-1h-1Zm5.54-3.02v-1 1ZM17.91 15.1h1v-.02l-1 .02Zm-6.54 23.5h-1v1h1v-1Zm6.14 0v1h1v-1h-1Zm0-17.95h1v-1h-1v1Zm-6.14 0v-1h-1v1h1Zm27.3 7.66v10.3h2V28.3h-2Zm1 9.3h-6.15v2h6.15v-2Zm-5.15 1V29h-2v9.6h2Zm0-9.61c0-1.3-.23-2.56-.9-3.5a3.72 3.72 0 0 0-3.21-1.56v2c.83 0 1.28.29 1.57.7.33.47.54 1.25.54 2.36h2Zm-4.11-5.06a4.35 4.35 0 0 0-4.08 2.8l1.85.77c.34-.83 1.06-1.57 2.23-1.57v-2Zm-4.07 2.8a4.9 4.9 0 0 0-.29 1.84h2c0-.53.05-.89.13-1.07l-1.84-.78Zm-.29 1.84V38.6h2V28.58h-2Zm1 9.02h-6.14v2h6.14v-2Zm-6.14 1h1V37.9a3359.54 3359.54 0 0 0 .03-7.64c0-4.25 0-8.78-.03-9.66l-2 .1c.04.8.04 5.26.03 9.56a3377 3377 0 0 1-.03 7.64V38.59l1 .01Zm0-16.95h6.14v-2h-6.14v2Zm5.14-1v2.55h2v-2.55h-2Zm.15 2.02a.7.7 0 0 1 .03-.04l-.03.04-.05.09 1.73 1a.77.77 0 0 1-.04.05v.01a1.15 1.15 0 0 0 .07-.1l-1.7-1.05Zm.81 1.58h.04v-2h-.04v2Zm1.04-1v-.05h-2v.05h2Zm-.16.5c.37-.56.86-1.18 1.57-1.66.7-.48 1.7-.86 3.13-.86v-2c-1.82 0-3.2.5-4.24 1.2a7.82 7.82 0 0 0-2.13 2.21l1.67 1.11Zm4.7-2.52c1.81 0 3.3.57 4.33 1.66 1.04 1.1 1.75 2.84 1.75 5.42h2c0-2.94-.81-5.23-2.3-6.8a7.75 7.75 0 0 0-5.78-2.28v2ZM14.48 11c-1.27 0-2.39.4-3.2 1.15A3.94 3.94 0 0 0 10 15.1h2c0-.6.23-1.11.63-1.47.4-.37 1.01-.63 1.85-.63v-2ZM10 15.1c0 2.33 1.84 4.1 4.4 4.1v-2c-1.56 0-2.4-.98-2.4-2.1h-2Zm4.4 4.1h.04v-2h-.04v2Zm.04 0c1.29 0 2.41-.41 3.22-1.17a3.96 3.96 0 0 0 1.25-2.93h-2c0 .6-.22 1.1-.61 1.47-.4.36-1 .63-1.86.63v2Zm4.47-4.12a4.07 4.07 0 0 0-1.26-2.92A4.55 4.55 0 0 0 14.48 11v2c.83 0 1.42.26 1.8.62.38.36.62.87.63 1.5l2-.04ZM11.37 39.6h6.14v-2h-6.14v2Zm7.14-1V20.65h-2V38.6h2Zm-1-18.95h-6.14v2h6.14v-2Zm-7.14 1V38.6h2V20.65h-2Z"
    mask="url(#b)" />
</svg>
