<svg width="39" height="38" viewBox="0 0 39 38" fill="none" xmlns="http://www.w3.org/2000/svg">
<path d="M36.1154 0.0053495C30.271 -0.0110505 8.71463 0.0165495 3.73223 0.0053495C2.18183 0.0053495 0.923828 1.22495 0.923828 2.72695V35.2794C0.923828 36.7817 2.18183 38.0001 3.73223 38.0001H36.1154C37.6666 38.0001 38.9238 36.7817 38.9238 35.2789V2.72695C38.9238 1.22495 37.6666 0.0053495 36.1154 0.0053495Z" fill="#0077B5"/>
<path d="M21.306 31.802V22.2504C21.2504 20.4952 22.2996 18.8572 24.4108 18.7836C26.468 18.7836 27.2912 20.352 27.2912 22.6516V31.8016H32.9768V21.994C32.9768 16.74 30.172 14.2952 26.4308 14.2952C23.3636 14.2952 22.0164 16.0092 21.268 17.1768L21.306 14.6968H15.6204C15.6944 16.3016 15.62 31.802 15.62 31.802H21.306ZM12.4728 24.3844V14.6964H6.78638V31.8016H12.4732C12.472 30.0056 12.4752 26.1552 12.4728 24.3844ZM9.63078 12.3616C11.6132 12.3616 12.8476 11.048 12.8476 9.40677C12.8312 5.44797 6.44598 5.49197 6.45118 9.40637C6.44678 11.0604 7.71518 12.382 9.63078 12.3616Z" fill="#F1F1F1"/>
</svg>
