<svg xmlns="http://www.w3.org/2000/svg" fill="none" viewBox="0 0 50 50">
  <mask id="b" fill="#fff">
    <path
      d="M0 24.37v1.34C.35 38.64 10.76 49.02 23.15 50h3.81A25.22 25.22 0 0 0 50 25.7v-1.33A25.18 25.18 0 0 0 26.3.03C12.59-.67.39 10.35 0 24.37Z" />
  </mask>
  <path fill="url(#a)" stroke="#EBEDF3" stroke-width="2"
    d="M0 24.37v1.34C.35 38.64 10.76 49.02 23.15 50h3.81A25.22 25.22 0 0 0 50 25.7v-1.33A25.18 25.18 0 0 0 26.3.03C12.59-.67.39 10.35 0 24.37Z"
    mask="url(#b)" />
  <mask id="c" fill="#fff">
    <path
      d="M24.9 12.73c3.99 0 4.46.01 6.04.1 1.45.05 2.23.3 2.76.51.7.27 1.2.6 1.71 1.13a4.8 4.8 0 0 1 1.12 1.74c.2.54.44 1.34.52 2.82.08 1.6.09 2.08.09 6.14 0 4.05-.01 4.53-.09 6.13a8.1 8.1 0 0 1-.52 2.82c-.27.7-.6 1.21-1.12 1.74a4.6 4.6 0 0 1-1.7 1.13 7.8 7.8 0 0 1-2.77.52c-1.57.08-2.05.09-6.04.09-3.98 0-4.45-.01-6.03-.1a7.97 7.97 0 0 1-2.77-.5 4.6 4.6 0 0 1-1.7-1.14 4.8 4.8 0 0 1-1.13-1.74 8.82 8.82 0 0 1-.52-2.82c-.07-1.6-.08-2.08-.08-6.13 0-4.06 0-4.54.08-6.14a8.1 8.1 0 0 1 .52-2.82c.27-.7.6-1.21 1.12-1.74a4.6 4.6 0 0 1 1.71-1.13 7.8 7.8 0 0 1 2.77-.52c1.57-.07 2.05-.09 6.03-.09Zm0-2.73c-4.05 0-4.56.02-6.14.1s-2.68.33-3.62.7c-.99.4-1.82.9-2.64 1.76a7.44 7.44 0 0 0-1.72 2.7 11.1 11.1 0 0 0-.7 3.68c-.07 1.6-.08 2.12-.08 6.24 0 4.13.02 4.64.09 6.25.08 1.62.33 2.72.7 3.69.37 1 .88 1.84 1.71 2.7a7.3 7.3 0 0 0 2.64 1.75c.94.38 2.04.63 3.62.7 1.6.08 2.1.1 6.14.1 4.05 0 4.56-.02 6.14-.1 1.59-.08 2.68-.33 3.63-.7.98-.4 1.81-.9 2.63-1.76a7.44 7.44 0 0 0 1.72-2.7c.37-.95.63-2.06.7-3.68.07-1.6.08-2.12.08-6.25 0-4.12-.01-4.63-.08-6.24a11.68 11.68 0 0 0-.7-3.69c-.38-1-.89-1.84-1.72-2.7a7.3 7.3 0 0 0-2.63-1.75c-.95-.38-2.04-.63-3.63-.7-1.58-.08-2.1-.1-6.14-.1Z" />
  </mask>
  <path fill="#fff" stroke="#EBEDF3" stroke-width="2"
    d="M24.9 12.73c3.99 0 4.46.01 6.04.1 1.45.05 2.23.3 2.76.51.7.27 1.2.6 1.71 1.13a4.8 4.8 0 0 1 1.12 1.74c.2.54.44 1.34.52 2.82.08 1.6.09 2.08.09 6.14 0 4.05-.01 4.53-.09 6.13a8.1 8.1 0 0 1-.52 2.82c-.27.7-.6 1.21-1.12 1.74a4.6 4.6 0 0 1-1.7 1.13 7.8 7.8 0 0 1-2.77.52c-1.57.08-2.05.09-6.04.09-3.98 0-4.45-.01-6.03-.1a7.97 7.97 0 0 1-2.77-.5 4.6 4.6 0 0 1-1.7-1.14 4.8 4.8 0 0 1-1.13-1.74 8.82 8.82 0 0 1-.52-2.82c-.07-1.6-.08-2.08-.08-6.13 0-4.06 0-4.54.08-6.14a8.1 8.1 0 0 1 .52-2.82c.27-.7.6-1.21 1.12-1.74a4.6 4.6 0 0 1 1.71-1.13 7.8 7.8 0 0 1 2.77-.52c1.57-.07 2.05-.09 6.03-.09Zm0-2.73c-4.05 0-4.56.02-6.14.1s-2.68.33-3.62.7c-.99.4-1.82.9-2.64 1.76a7.44 7.44 0 0 0-1.72 2.7 11.1 11.1 0 0 0-.7 3.68c-.07 1.6-.08 2.12-.08 6.24 0 4.13.02 4.64.09 6.25.08 1.62.33 2.72.7 3.69.37 1 .88 1.84 1.71 2.7a7.3 7.3 0 0 0 2.64 1.75c.94.38 2.04.63 3.62.7 1.6.08 2.1.1 6.14.1 4.05 0 4.56-.02 6.14-.1 1.59-.08 2.68-.33 3.63-.7.98-.4 1.81-.9 2.63-1.76a7.44 7.44 0 0 0 1.72-2.7c.37-.95.63-2.06.7-3.68.07-1.6.08-2.12.08-6.25 0-4.12-.01-4.63-.08-6.24a11.68 11.68 0 0 0-.7-3.69c-.38-1-.89-1.84-1.72-2.7a7.3 7.3 0 0 0-2.63-1.75c-.95-.38-2.04-.63-3.63-.7-1.58-.08-2.1-.1-6.14-.1Z"
    mask="url(#c)" />
  <mask id="d" fill="#fff">
    <path
      d="M24.9 17.38a7.72 7.72 0 0 0-7.65 7.8c0 4.3 3.42 7.79 7.65 7.79a7.72 7.72 0 0 0 7.66-7.8c0-4.3-3.43-7.79-7.66-7.79Zm0 12.85a5.01 5.01 0 0 1-4.97-5.05c0-2.8 2.23-5.06 4.97-5.06a5.01 5.01 0 0 1 4.97 5.06c0 2.8-2.22 5.05-4.97 5.05Z" />
  </mask>
  <path fill="#fff" stroke="#EBEDF3" stroke-width="2"
    d="M24.9 17.38a7.72 7.72 0 0 0-7.65 7.8c0 4.3 3.42 7.79 7.65 7.79a7.72 7.72 0 0 0 7.66-7.8c0-4.3-3.43-7.79-7.66-7.79Zm0 12.85a5.01 5.01 0 0 1-4.97-5.05c0-2.8 2.23-5.06 4.97-5.06a5.01 5.01 0 0 1 4.97 5.06c0 2.8-2.22 5.05-4.97 5.05Z"
    mask="url(#d)" />
  <mask id="e" fill="#fff">
    <path
      d="M32.86 18.89a1.8 1.8 0 0 0 1.79-1.82c0-1-.8-1.82-1.79-1.82a1.8 1.8 0 0 0-1.79 1.82c0 1 .8 1.82 1.8 1.82Z" />
  </mask>
  <path fill="#fff" stroke="#EBEDF3" stroke-width="2"
    d="M32.86 18.89a1.8 1.8 0 0 0 1.79-1.82c0-1-.8-1.82-1.79-1.82a1.8 1.8 0 0 0-1.79 1.82c0 1 .8 1.82 1.8 1.82Z"
    mask="url(#e)" />
  <defs>
    <radialGradient id="a" cx="0" cy="0" r="1"
      gradientTransform="matrix(3.78343545 -72.18501734 61.35937684 3.21603084 .91 45.42)"
      gradientUnits="userSpaceOnUse">
      <stop stop-color="#FED576" />
      <stop offset=".26" stop-color="#F47133" />
      <stop offset=".61" stop-color="#BC3081" />
      <stop offset="1" stop-color="#4C63D2" />
    </radialGradient>
  </defs>
</svg>
