<svg xmlns="http://www.w3.org/2000/svg" fill="none" viewBox="0 0 50 50">
  <g clip-path="url(#a)">
    <path fill="url(#b)"
      d="M25.01.38c-10.28 0-13.29 0-13.87.06-2.11.17-3.42.5-4.85 1.22a9.83 9.83 0 0 0-2.83 2.07A10.57 10.57 0 0 0 .6 9.72C.44 10.87.39 11.1.38 16.99v8c0 10.27.01 13.27.06 13.86.17 2.05.5 3.34 1.18 4.75 1.3 2.7 3.79 4.74 6.72 5.5 1.01.26 2.13.4 3.57.47.61.03 6.83.05 13.05.05 6.22 0 12.44-.01 13.03-.04 1.67-.08 2.64-.21 3.7-.49 2.96-.76 5.4-2.76 6.73-5.5.67-1.38 1-2.72 1.16-4.67.04-.42.05-7.18.05-13.94 0-6.75-.02-13.5-.05-13.93-.15-1.98-.5-3.3-1.18-4.71-.57-1.15-1.2-2.01-2.11-2.89a10.63 10.63 0 0 0-6-2.85C39.14.44 38.91.4 33.03.38H25Z" />
    <path fill="url(#c)"
      d="M25.01.38c-10.28 0-13.29 0-13.87.06-2.11.17-3.42.5-4.85 1.22a9.83 9.83 0 0 0-2.83 2.07A10.57 10.57 0 0 0 .6 9.72C.44 10.87.39 11.1.38 16.99v8c0 10.27.01 13.27.06 13.86.17 2.05.5 3.34 1.18 4.75 1.3 2.7 3.79 4.74 6.72 5.5 1.01.26 2.13.4 3.57.47.61.03 6.83.05 13.05.05 6.22 0 12.44-.01 13.03-.04 1.67-.08 2.64-.21 3.7-.49 2.96-.76 5.4-2.76 6.73-5.5.67-1.38 1-2.72 1.16-4.67.04-.42.05-7.18.05-13.94 0-6.75-.02-13.5-.05-13.93-.15-1.98-.5-3.3-1.18-4.71-.57-1.15-1.2-2.01-2.11-2.89a10.63 10.63 0 0 0-6-2.85C39.14.44 38.91.4 33.03.38H25Z" />
    <path fill="#fff"
      d="M25 6.82c-4.94 0-5.56.02-7.5.1-1.93.1-3.25.4-4.4.85a8.9 8.9 0 0 0-3.23 2.1 8.93 8.93 0 0 0-2.1 3.22 13.28 13.28 0 0 0-.84 4.41c-.09 1.94-.11 2.56-.11 7.5 0 4.94.02 5.55.1 7.5.1 1.93.4 3.25.85 4.4a8.9 8.9 0 0 0 2.1 3.23 8.9 8.9 0 0 0 3.22 2.1c1.16.45 2.48.75 4.41.84 1.94.09 2.56.11 7.5.11 4.94 0 5.55-.02 7.5-.1 1.93-.1 3.25-.4 4.4-.85a8.9 8.9 0 0 0 3.23-2.1 8.93 8.93 0 0 0 2.1-3.22c.44-1.16.75-2.48.84-4.42.09-1.94.11-2.55.11-7.5 0-4.93-.02-5.55-.11-7.49-.1-1.93-.4-3.25-.84-4.41a8.92 8.92 0 0 0-2.1-3.22 8.89 8.89 0 0 0-3.22-2.1 13.38 13.38 0 0 0-4.42-.84c-1.94-.1-2.56-.11-7.5-.11H25Zm-1.63 3.27H25c4.86 0 5.43.02 7.35.1 1.77.09 2.73.39 3.37.63.85.33 1.46.73 2.1 1.36a5.64 5.64 0 0 1 1.35 2.1c.25.64.55 1.6.63 3.37.09 1.92.1 2.5.1 7.35s-.01 5.42-.1 7.34a10.06 10.06 0 0 1-.63 3.37 5.62 5.62 0 0 1-1.36 2.1 5.62 5.62 0 0 1-2.09 1.35c-.64.25-1.6.55-3.37.63-1.92.09-2.5.1-7.35.1s-5.43-.01-7.35-.1a10.08 10.08 0 0 1-3.37-.63 5.63 5.63 0 0 1-2.1-1.36 5.63 5.63 0 0 1-1.35-2.09c-.25-.64-.55-1.6-.63-3.37-.09-1.92-.1-2.5-.1-7.35s.01-5.43.1-7.34c.08-1.78.38-2.74.63-3.38.33-.85.72-1.45 1.36-2.09a5.64 5.64 0 0 1 2.09-1.36c.64-.25 1.6-.55 3.37-.63 1.68-.07 2.33-.1 5.72-.1Zm11.34 3.02a2.18 2.18 0 1 0 0 4.37 2.18 2.18 0 0 0 0-4.37ZM25 15.66a9.34 9.34 0 1 0 0 18.68 9.34 9.34 0 0 0 0-18.68Zm0 3.28a6.06 6.06 0 1 1 0 12.12 6.06 6.06 0 0 1 0-12.12Z" />
  </g>
  <rect width="49" height="49" x=".5" y=".5" stroke="#EBEDF3" rx="24.5" />
  <defs>
    <radialGradient id="b" cx="0" cy="0" r="1" gradientTransform="matrix(0 -48.7973 45.3977 0 13.46 53.4)"
      gradientUnits="userSpaceOnUse">
      <stop stop-color="#FD5" />
      <stop offset=".1" stop-color="#FD5" />
      <stop offset=".5" stop-color="#FF543E" />
      <stop offset="1" stop-color="#C837AB" />
    </radialGradient>
    <radialGradient id="c" cx="0" cy="0" r="1"
      gradientTransform="matrix(4.28249621 21.3882788 -88.18566356 17.6570903 -7.87 3.93)"
      gradientUnits="userSpaceOnUse">
      <stop stop-color="#3771C8" />
      <stop offset=".13" stop-color="#3771C8" />
      <stop offset="1" stop-color="#60F" stop-opacity="0" />
    </radialGradient>
    <clipPath id="a">
      <rect width="50" height="50" fill="#fff" rx="25" />
    </clipPath>
  </defs>
</svg>
