<svg width="41" height="40" viewBox="0 0 41 40" fill="none" xmlns="http://www.w3.org/2000/svg">
  <path
    d="M11.067 39.8584C9.5198 39.8412 7.98717 39.5574 6.53638 39.0196C5.47694 38.628 4.51842 38.0046 3.73089 37.1949C2.91903 36.4089 2.29468 35.4502 1.90422 34.3898C1.36687 32.9391 1.08351 31.4066 1.06657 29.8596C0.94775 27.2878 0.923828 26.5165 0.923828 20C0.923828 13.4835 0.950103 12.7149 1.0654 10.1412C1.08439 8.59481 1.3681 7.06313 1.90422 5.61255C2.29658 4.55294 2.92005 3.59403 3.72932 2.80549C4.51588 1.99436 5.47485 1.3706 6.5352 0.980392C7.986 0.442595 9.51862 0.158835 11.0658 0.141569C13.6383 0.0239216 14.4109 0 20.9238 0C27.4368 0 28.2089 0.0262745 30.7827 0.141569C32.3294 0.160424 33.8615 0.444135 35.3125 0.980392C36.3723 1.37111 37.3311 1.99466 38.1179 2.8051C38.9286 3.59225 39.5524 4.55121 39.9434 5.61137C40.4814 7.06214 40.7653 8.59477 40.7827 10.142C40.9003 12.7157 40.9242 13.4863 40.9242 20.0008C40.9242 26.5153 40.9003 27.2859 40.7827 29.8596C40.764 31.4065 40.4801 32.9388 39.9434 34.3898C39.5375 35.442 38.9157 36.3976 38.1181 37.195C37.3205 37.9924 36.3648 38.6139 35.3125 39.0196C33.8617 39.5575 32.3291 39.8414 30.7819 39.8588C28.2105 39.9765 27.4376 40.0004 20.923 40.0004C14.4085 40.0004 13.6379 39.9776 11.0666 39.8588"
    fill="url(#paint0_radial_1914_4385)" />
  <path
    d="M11.067 39.8584C9.5198 39.8412 7.98717 39.5574 6.53638 39.0196C5.47694 38.628 4.51842 38.0046 3.73089 37.1949C2.91903 36.4089 2.29468 35.4502 1.90422 34.3898C1.36687 32.9391 1.08351 31.4066 1.06657 29.8596C0.94775 27.2878 0.923828 26.5165 0.923828 20C0.923828 13.4835 0.950103 12.7149 1.0654 10.1412C1.08439 8.59481 1.3681 7.06313 1.90422 5.61255C2.29658 4.55294 2.92005 3.59403 3.72932 2.80549C4.51588 1.99436 5.47485 1.3706 6.5352 0.980392C7.986 0.442595 9.51862 0.158835 11.0658 0.141569C13.6383 0.0239216 14.4109 0 20.9238 0C27.4368 0 28.2089 0.0262745 30.7827 0.141569C32.3294 0.160424 33.8615 0.444135 35.3125 0.980392C36.3723 1.37111 37.3311 1.99466 38.1179 2.8051C38.9286 3.59225 39.5524 4.55121 39.9434 5.61137C40.4814 7.06214 40.7653 8.59477 40.7827 10.142C40.9003 12.7157 40.9242 13.4863 40.9242 20.0008C40.9242 26.5153 40.9003 27.2859 40.7827 29.8596C40.764 31.4065 40.4801 32.9388 39.9434 34.3898C39.5375 35.442 38.9157 36.3976 38.1181 37.195C37.3205 37.9924 36.3648 38.6139 35.3125 39.0196C33.8617 39.5575 32.3291 39.8414 30.7819 39.8588C28.2105 39.9765 27.4376 40.0004 20.923 40.0004C14.4085 40.0004 13.6379 39.9776 11.0666 39.8588"
    fill="url(#paint1_radial_1914_4385)" />
  <path
    d="M16.0129 20.0853C16.013 19.1056 16.3036 18.1479 16.8479 17.3334C17.3923 16.5189 18.166 15.884 19.0711 15.5092C19.9763 15.1344 20.9723 15.0364 21.9331 15.2276C22.894 15.4189 23.7765 15.8907 24.4692 16.5836C25.1619 17.2764 25.6335 18.1591 25.8245 19.12C26.0155 20.0809 25.9173 21.0768 25.5423 21.9819C25.1672 22.8869 24.5322 23.6605 23.7176 24.2046C22.9029 24.7488 21.9452 25.0392 20.9655 25.039C19.6518 25.0388 18.3921 24.5168 17.4633 23.5878C16.5345 22.6588 16.0128 21.3989 16.0129 20.0853ZM13.3349 20.0853C13.3349 21.5945 13.7824 23.0698 14.6209 24.3246C15.4593 25.5795 16.6511 26.5575 18.0454 27.135C19.4397 27.7126 20.9739 27.8637 22.4541 27.5693C23.9343 27.2748 25.294 26.5481 26.3611 25.4809C27.4283 24.4138 28.155 23.0541 28.4494 21.5739C28.7439 20.0938 28.5928 18.5595 28.0152 17.1652C27.4377 15.7709 26.4596 14.5791 25.2048 13.7407C23.95 12.9022 22.4747 12.4547 20.9655 12.4547C19.9634 12.4546 18.9711 12.652 18.0453 13.0354C17.1195 13.4189 16.2783 13.981 15.5697 14.6895C14.8611 15.3981 14.2991 16.2393 13.9156 17.1651C13.5322 18.0909 13.3348 19.0832 13.3349 20.0853ZM27.1149 12.1523C27.1147 12.505 27.2192 12.8498 27.415 13.1431C27.6108 13.4365 27.8891 13.6651 28.2149 13.8002C28.5407 13.9353 28.8992 13.9708 29.2451 13.9022C29.591 13.8335 29.9088 13.6638 30.1583 13.4146C30.4078 13.1653 30.5778 12.8476 30.6467 12.5018C30.7157 12.1559 30.6805 11.7974 30.5457 11.4715C30.4109 11.1456 30.1825 10.867 29.8893 10.6709C29.5962 10.4749 29.2515 10.3702 28.8988 10.37C28.4261 10.3702 27.9728 10.558 27.6384 10.8922C27.3041 11.2264 27.1161 11.6796 27.1157 12.1523M14.9627 32.1814C14.0204 32.171 13.0869 31.9986 12.2031 31.6716C11.5622 31.4245 10.98 31.046 10.4942 30.5604C10.0084 30.0748 9.62965 29.4928 9.38233 28.852C9.05518 27.9682 8.88273 27.0347 8.87253 26.0923C8.80037 24.5261 8.78625 24.0555 8.78625 20.0872C8.78625 16.119 8.80194 15.6496 8.87253 14.0818C8.88396 13.1396 9.05638 12.2062 9.38233 11.3222C9.62936 10.681 10.008 10.0987 10.4939 9.61289C10.9797 9.12704 11.562 8.7484 12.2031 8.50137C13.0869 8.17423 14.0204 8.00177 14.9627 7.99156C16.529 7.91941 16.9996 7.90529 20.9663 7.90529C24.9329 7.90529 25.4039 7.92058 26.9717 7.99196C27.9139 8.00339 28.8473 8.17581 29.7313 8.50176C30.3725 8.74881 30.9547 9.12746 31.4406 9.61331C31.9264 10.0992 32.3051 10.6814 32.5521 11.3225C32.8793 12.2063 33.0517 13.1398 33.0619 14.0822C33.1341 15.6508 33.1482 16.119 33.1482 20.0876C33.1482 24.0563 33.1337 24.5253 33.0619 26.0931C33.051 27.0354 32.8785 27.9688 32.5521 28.8527C32.3048 29.4936 31.9261 30.0755 31.4402 30.5612C30.9544 31.0468 30.3723 31.4253 29.7313 31.6723C28.8476 31.9995 27.9141 32.1719 26.9717 32.1822C25.4055 32.2543 24.9349 32.2684 20.9663 32.2684C16.9976 32.2684 16.5286 32.2539 14.9627 32.1822M14.8396 5.31588C13.6066 5.34012 12.3866 5.5735 11.2317 6.00607C10.2445 6.38779 9.34789 6.97159 8.59944 7.72004C7.85098 8.4685 7.26718 9.3651 6.88547 10.3523C6.45295 11.5073 6.21958 12.7272 6.19527 13.9602C6.12194 15.5445 6.10547 16.0512 6.10547 20.0869C6.10547 24.1225 6.12233 24.6288 6.19527 26.2135C6.21957 27.4465 6.45295 28.6665 6.88547 29.8214C7.2672 30.8086 7.85101 31.7052 8.59946 32.4536C9.34792 33.2021 10.2445 33.7859 11.2317 34.1676C12.3867 34.6 13.6066 34.8334 14.8396 34.8578C16.4247 34.93 16.9306 34.9476 20.9663 34.9476C25.0019 34.9476 25.5082 34.9308 27.0929 34.8578C28.3259 34.8335 29.5458 34.6001 30.7008 34.1676C31.688 33.7859 32.5846 33.2021 33.333 32.4536C34.0815 31.7052 34.6653 30.8086 35.047 29.8214C35.4801 28.6666 35.7135 27.4466 35.7372 26.2135C35.8094 24.628 35.8259 24.1225 35.8259 20.0869C35.8259 16.0512 35.809 15.5449 35.7372 13.9602C35.713 12.7272 35.4796 11.5072 35.047 10.3523C34.6653 9.36528 34.0817 8.46882 33.3334 7.72039C32.5852 6.97196 31.6889 6.38805 30.7019 6.00607C29.5471 5.57322 28.3271 5.33983 27.0941 5.31588C25.5094 5.24333 25.0031 5.22607 20.9682 5.22607C16.9333 5.22607 16.4259 5.24294 14.8404 5.31588"
    fill="white" />
  <defs>
    <radialGradient id="paint0_radial_1914_4385" cx="0" cy="0" r="1" gradientUnits="userSpaceOnUse"
      gradientTransform="translate(3.51245 39.1239) scale(50.7851)">
      <stop offset="0.09" stop-color="#FA8F21" />
      <stop offset="0.78" stop-color="#D82D7E" />
    </radialGradient>
    <radialGradient id="paint1_radial_1914_4385" cx="0" cy="0" r="1" gradientUnits="userSpaceOnUse"
      gradientTransform="translate(28.6305 37.8392) scale(44.6914)">
      <stop offset="0.64" stop-color="#8C3AAA" stop-opacity="0" />
      <stop offset="1" stop-color="#8C3AAA" />
    </radialGradient>
  </defs>
</svg>
