<svg width="23" height="24" viewBox="0 0 23 24" fill="none" xmlns="http://www.w3.org/2000/svg">
  <path
    d="M8.53772 22.4209H2.43935C1.08551 22.4209 0 21.3354 0 19.9816V2.90614C0 1.55231 1.08551 0.466797 2.43935 0.466797H19.5148C20.8686 0.466797 21.9541 1.55231 21.9541 2.90614V9.40701C21.5882 9.26065 21.1857 9.17527 20.7832 9.17527C20.332 9.17527 19.9051 9.27284 19.5148 9.45579V2.90614H2.43935V19.9816H8.67188L8.53772 20.1157V22.4209ZM4.8787 7.78484H17.0754V5.34549H4.8787V7.78484ZM4.8787 17.5422H11.1112L13.4164 15.2492V15.1029H4.8787V17.5422ZM4.8787 12.6635H16.0021L17.0754 11.5902V10.2242H4.8787V12.6635ZM22.8079 13.3709L21.2467 11.8098C20.9906 11.5536 20.5637 11.5536 20.3076 11.8098L19.0879 13.0294L21.5882 15.5298L22.8079 14.3101C23.064 14.054 23.064 13.6271 22.8079 13.3709ZM10.9771 23.6406H13.4896L20.8686 16.2372L18.3683 13.7368L10.9771 21.1281V23.6406Z"
    fill="#FCBC5C" />
</svg>
