<svg width="41" height="40" viewBox="0 0 41 40" fill="none" xmlns="http://www.w3.org/2000/svg">
  <path
    d="M32.393 0H9.45466C4.74321 0 0.923828 3.81938 0.923828 8.53083V31.4692C0.923828 36.1806 4.74321 40 9.45466 40H32.393C37.1044 40 40.9238 36.1806 40.9238 31.4692V8.53083C40.9238 3.81938 37.1044 0 32.393 0Z"
    fill="#0A93E2" />
  <path fill-rule="evenodd" clip-rule="evenodd"
    d="M33.0907 13.9329C32.2136 14.3212 31.2835 14.576 30.331 14.6888C31.3271 14.0911 32.0887 13.1478 32.4403 12.0287C31.4981 12.5872 30.4679 12.9814 29.3936 13.1947C28.7353 12.488 27.8793 11.9962 26.9373 11.7833C25.9953 11.5703 25.011 11.6463 24.1128 12.0011C23.2146 12.356 22.4441 12.9733 21.902 13.7725C21.3599 14.5718 21.0712 15.5159 21.0737 16.4817C21.0725 16.8504 21.1138 17.218 21.1967 17.5773C19.2856 17.4815 17.4159 16.9849 15.7091 16.1199C14.0022 15.2549 12.4963 14.0407 11.289 12.5561C10.6714 13.6144 10.4815 14.8686 10.7581 16.0623C11.0348 17.256 11.757 18.2989 12.7772 18.9776C12.0129 18.9537 11.2654 18.7467 10.5976 18.3741V18.4327C10.5976 20.7646 12.2557 22.7099 14.4529 23.1493C13.7461 23.3422 13.0044 23.3702 12.285 23.2313C12.5923 24.186 13.1899 25.0209 13.9944 25.6196C14.799 26.2183 15.7704 26.5509 16.7731 26.571C15.7758 27.3549 14.6337 27.9344 13.4121 28.2762C12.1906 28.618 10.9136 28.7155 9.6543 28.5631C11.7811 29.9283 14.3064 30.7192 17.025 30.7192C25.8723 30.7192 30.706 23.3954 30.706 17.0383C30.706 16.8332 30.706 16.6281 30.6943 16.4172C31.6317 15.7434 32.452 14.8938 33.0965 13.9329H33.0907Z"
    fill="white" />
</svg>
