<svg xmlns="http://www.w3.org/2000/svg" fill="none" viewBox="0 0 1080 1080">
  <g clip-path="url(#a)">
    <path fill="#fff" d="M0 0h1080v1080H0z" />
    <g filter="url(#b)">
      <path fill="#374983"
        d="M863.721 861.595c9.763 9.763 9.805 25.646-.446 34.896a487.721 487.721 0 0 1-513.412 88.511A487.738 487.738 0 0 1 48.772 534.387a487.742 487.742 0 0 1 814.503-362.104c10.251 9.251 10.209 25.133.446 34.896L747.327 323.573c-9.763 9.764-25.525 9.663-36.139.833a273.133 273.133 0 0 0-279.199-42.363 273.13 273.13 0 0 0-168.611 252.344 273.133 273.133 0 0 0 168.611 252.344 273.134 273.134 0 0 0 279.199-42.363c10.614-8.83 26.376-8.93 36.139.833l116.394 116.394Z" />
    </g>
    <g filter="url(#c)">
      <circle cx="870.971" cy="415.935" r="97.548" fill="#FCBC5C" />
    </g>
    <g filter="url(#d)">
      <circle cx="870.971" cy="652.839" r="97.548" fill="#FCBC5C" />
    </g>
    <g filter="url(#e)">
      <path fill="#E3A953"
        d="M48.503 753.839a3.977 3.977 0 0 0-2.058 5.258 540.006 540.006 0 0 0 137.024 186.471 539.9 539.9 0 0 0 202.494 111.992 3.976 3.976 0 0 0 4.951-2.71l3.885-13.41a4.022 4.022 0 0 0-2.726-4.97A518.07 518.07 0 0 1 66.586 750.334c-.897-2.019-3.252-2.948-5.278-2.067l-12.805 5.572Z" />
    </g>
  </g>
  <defs>
    <filter id="b" width="842.232" height="995.484" x="48.772" y="46.645" color-interpolation-filters="sRGB"
      filterUnits="userSpaceOnUse">
      <feFlood flood-opacity="0" result="BackgroundImageFix" />
      <feColorMatrix in="SourceAlpha" result="hardAlpha" values="0 0 0 0 0 0 0 0 0 0 0 0 0 0 0 0 0 0 127 0" />
      <feOffset dx="10" dy="10" />
      <feGaussianBlur stdDeviation="5" />
      <feComposite in2="hardAlpha" operator="out" />
      <feColorMatrix values="0 0 0 0 0 0 0 0 0 0 0 0 0 0 0 0 0 0 0.25 0" />
      <feBlend in2="BackgroundImageFix" result="effect1_dropShadow_662_711" />
      <feBlend in="SourceGraphic" in2="effect1_dropShadow_662_711" result="shape" />
    </filter>
    <filter id="c" width="215.097" height="215.097" x="773.423" y="318.387" color-interpolation-filters="sRGB"
      filterUnits="userSpaceOnUse">
      <feFlood flood-opacity="0" result="BackgroundImageFix" />
      <feColorMatrix in="SourceAlpha" result="hardAlpha" values="0 0 0 0 0 0 0 0 0 0 0 0 0 0 0 0 0 0 127 0" />
      <feOffset dx="10" dy="10" />
      <feGaussianBlur stdDeviation="5" />
      <feComposite in2="hardAlpha" operator="out" />
      <feColorMatrix values="0 0 0 0 0 0 0 0 0 0 0 0 0 0 0 0 0 0 0.25 0" />
      <feBlend in2="BackgroundImageFix" result="effect1_dropShadow_662_711" />
      <feBlend in="SourceGraphic" in2="effect1_dropShadow_662_711" result="shape" />
    </filter>
    <filter id="d" width="215.097" height="215.097" x="773.423" y="555.29" color-interpolation-filters="sRGB"
      filterUnits="userSpaceOnUse">
      <feFlood flood-opacity="0" result="BackgroundImageFix" />
      <feColorMatrix in="SourceAlpha" result="hardAlpha" values="0 0 0 0 0 0 0 0 0 0 0 0 0 0 0 0 0 0 127 0" />
      <feOffset dx="10" dy="10" />
      <feGaussianBlur stdDeviation="5" />
      <feComposite in2="hardAlpha" operator="out" />
      <feColorMatrix values="0 0 0 0 0 0 0 0 0 0 0 0 0 0 0 0 0 0 0.25 0" />
      <feBlend in2="BackgroundImageFix" result="effect1_dropShadow_662_711" />
      <feBlend in="SourceGraphic" in2="effect1_dropShadow_662_711" result="shape" />
    </filter>
    <filter id="e" width="368.854" height="329.796" x="46.103" y="747.934" color-interpolation-filters="sRGB"
      filterUnits="userSpaceOnUse">
      <feFlood flood-opacity="0" result="BackgroundImageFix" />
      <feColorMatrix in="SourceAlpha" result="hardAlpha" values="0 0 0 0 0 0 0 0 0 0 0 0 0 0 0 0 0 0 127 0" />
      <feOffset dx="10" dy="10" />
      <feGaussianBlur stdDeviation="5" />
      <feComposite in2="hardAlpha" operator="out" />
      <feColorMatrix values="0 0 0 0 0 0 0 0 0 0 0 0 0 0 0 0 0 0 0.25 0" />
      <feBlend in2="BackgroundImageFix" result="effect1_dropShadow_662_711" />
      <feBlend in="SourceGraphic" in2="effect1_dropShadow_662_711" result="shape" />
    </filter>
    <clipPath id="a">
      <path fill="#fff" d="M0 0h1080v1080H0z" />
    </clipPath>
  </defs>
</svg>
