<svg width="64" height="69" viewBox="0 0 64 69" fill="none" xmlns="http://www.w3.org/2000/svg">
<rect width="64" height="69" fill="#1E1E1E"/>
<g clip-path="url(#clip0_0_1)">
<rect width="1440" height="1445" transform="translate(-979 -764)" fill="white"/>
<rect x="-919" y="-161" width="1320" height="480" rx="15" fill="#EBEDF3"/>
<rect x="-203" y="-40" width="470" height="237" rx="15" fill="#FFF8EF"/>
<path d="M56.415 68.681H7.62744V27.4094L32.0173 11.918L56.415 27.4094V68.681Z" fill="#FCBC5C"/>
<path opacity="0.2" d="M56.415 68.681H7.62744V27.4094L32.0173 11.918L56.415 27.4094V68.681Z" fill="black"/>
<path d="M53.6614 9.95703H10.3765V65.5245H53.6614V9.95703Z" fill="#EBEBEB"/>
<path d="M29.3846 43.2043L19.4736 33.1726L22.8032 29.8819L28.594 35.7428L40.6196 16.8867L44.5684 19.4024L29.3846 43.2043Z" fill="#8DE06F"/>
<path d="M56.415 37.7656V68.6862H7.62744V37.7656C9.72257 38.9339 11.7826 40.1957 13.8583 41.4107C15.9339 42.6257 17.9901 43.8874 20.0424 45.1492C22.3284 46.5394 24.6143 47.957 26.8925 49.3823L26.9664 49.3394C26.9431 49.3394 26.9275 49.3784 26.908 49.3901C28.6111 50.4415 30.3155 51.4995 32.0212 52.5639C33.7191 51.493 35.4287 50.4143 37.1344 49.3589C37.115 49.3589 37.0994 49.3239 37.076 49.3083C37.099 49.3243 37.1238 49.3373 37.15 49.3472C39.4269 47.9271 41.7102 46.5148 44 45.1102C46.0536 43.8563 48.1124 42.6127 50.1764 41.3795C52.2715 40.1762 54.3199 38.9339 56.415 37.7656Z" fill="#FCBC5C"/>
<g opacity="0.2">
<path d="M56.415 37.7539C54.4445 39.1364 52.4389 40.4799 50.4529 41.8273C48.4668 43.1747 46.4456 44.491 44.4284 45.8112C42.3255 47.1898 40.2187 48.5553 38.108 49.908L37.9172 50.0404L32.2977 53.6231L32.0173 53.7906L31.7447 53.6231L26.1331 50.0326L25.9345 49.908C23.8186 48.5527 21.7092 47.1846 19.6063 45.8034C17.5968 44.491 15.5912 43.1592 13.5896 41.8273C11.5879 40.4955 9.59795 39.1169 7.62744 37.7539C9.72257 38.9222 11.7826 40.1839 13.8583 41.399C15.9339 42.614 17.9901 43.8757 20.0424 45.1375C22.3284 46.5277 24.6143 47.9452 26.8925 49.3705C28.6059 50.4272 30.3155 51.4877 32.0212 52.5522C33.7191 51.4813 35.4287 50.4025 37.1344 49.3472C39.4113 47.9271 41.6946 46.5148 43.9845 45.1102C46.038 43.8563 48.0968 42.6127 50.1608 41.3795C52.2715 40.1645 54.3199 38.9222 56.415 37.7539Z" fill="black"/>
<path d="M26.9585 49.3086C26.9351 49.3086 26.9196 49.3475 26.9001 49.3592L26.1212 50.0135C24.8984 51.0454 23.6445 52.0346 22.371 52.9965C20.8133 54.1648 19.2283 55.333 17.6317 56.4468C16.035 57.5606 14.415 58.651 12.7638 59.7063C11.1127 60.7617 9.45369 61.7937 7.73242 62.74C9.21225 61.4432 10.7505 60.2321 12.3043 59.056C13.8581 57.8799 15.4548 56.7194 17.0436 55.6017C18.6325 54.4841 20.2681 53.3898 21.9154 52.3344C23.2278 51.4933 24.5635 50.6638 25.9226 49.8888C26.238 49.7058 26.5535 49.5306 26.8767 49.3514L26.9585 49.3086Z" fill="black"/>
<path d="M56.2984 62.74C54.5771 61.7937 52.9065 60.7617 51.267 59.7063C49.6275 58.651 47.988 57.5528 46.3913 56.4468C44.7947 55.3408 43.2058 54.1803 41.652 52.9965C40.3863 52.0346 39.1324 51.0493 37.9174 50.0212L37.1385 49.3592C37.119 49.3592 37.1034 49.3242 37.0801 49.3086C37.103 49.3246 37.1279 49.3377 37.1541 49.3475C37.4773 49.5306 37.7927 49.7058 38.1082 49.8888C39.4673 50.6677 40.7952 51.4933 42.1154 52.3344C43.7627 53.3898 45.3749 54.488 46.9794 55.6017C48.5838 56.7155 50.1649 57.8682 51.7187 59.056C53.2725 60.2437 54.8185 61.4432 56.2984 62.74Z" fill="black"/>
</g>
<path d="M11.1478 7.30832C10.8882 5.16782 10.8882 3.00378 11.1478 0.863281C11.4075 3.00378 11.4075 5.16782 11.1478 7.30832Z" fill="#263238"/>
<path d="M8.4064 8.32975C7.55286 7.6712 6.74489 6.95561 5.98805 6.18789C5.21942 5.43328 4.50377 4.62655 3.84619 3.77344C5.54359 5.10371 7.07468 6.63348 8.4064 8.32975Z" fill="#263238"/>
<path d="M7.19504 10.9889C6.12593 11.1274 5.04858 11.1925 3.97057 11.1836C2.8939 11.1956 1.81772 11.1318 0.75 10.9927C1.81762 10.8523 2.89381 10.7872 3.97057 10.798C5.04849 10.7878 6.12584 10.8516 7.19504 10.9889Z" fill="#263238"/>
<path d="M8.21891 13.7305C6.88721 15.4266 5.35759 16.9575 3.6626 18.2907C4.99129 16.5907 6.52123 15.0582 8.21891 13.7266V13.7305Z" fill="#263238"/>
<path d="M52.6027 7.30832C52.4673 6.23895 52.4036 5.16173 52.4118 4.08385C52.4041 3.00705 52.4705 1.93098 52.6105 0.863281C52.8701 3.00378 52.8701 5.16782 52.6105 7.30832H52.6027Z" fill="#263238"/>
<path d="M55.3438 8.32975C56.6755 6.63348 58.2066 5.10371 59.904 3.77344C59.2464 4.62655 58.5307 5.43328 57.7621 6.18789C57.0053 6.95561 56.1973 7.6712 55.3438 8.32975Z" fill="#263238"/>
<path d="M56.5552 10.9889C57.6244 10.8516 58.7017 10.7879 59.7796 10.7981C60.8564 10.7871 61.9326 10.8522 63.0002 10.9928C61.9325 11.132 60.8563 11.1957 59.7796 11.1836C58.7016 11.1925 57.6243 11.1274 56.5552 10.9889Z" fill="#263238"/>
<path d="M55.5308 13.7305C57.2282 15.0609 58.7581 16.5921 60.0871 18.2907C59.2348 17.6306 58.4282 16.9138 57.6726 16.1449C56.9041 15.3902 56.1884 14.5835 55.5308 13.7305Z" fill="#263238"/>
</g>
<defs>
<clipPath id="clip0_0_1">
<rect width="1440" height="1445" fill="white" transform="translate(-979 -764)"/>
</clipPath>
</defs>
</svg>
