<svg width="84" height="84" viewBox="0 0 84 84" fill="none" xmlns="http://www.w3.org/2000/svg">
<rect width="84" height="84" rx="42" fill="white"/>
<g filter="url(#filter0_d_4043_1656)">
<path d="M63.3458 63.2037C64.1268 63.9847 64.1307 65.2562 63.3031 65.9878C59.0031 69.7889 53.7634 72.3925 48.1112 73.5168C41.8037 74.7715 35.2658 74.1276 29.3242 71.6665C23.3827 69.2054 18.3043 65.0377 14.7314 59.6905C11.1585 54.3432 9.25147 48.0566 9.25146 41.6255C9.25146 35.1944 11.1585 28.9078 14.7314 23.5605C18.3043 18.2133 23.3827 14.0456 29.3242 11.5845C35.2658 9.12345 41.8037 8.47952 48.1112 9.73416C53.7634 10.8585 59.0031 13.4621 63.3031 17.2632C64.1307 17.9948 64.1268 19.2663 63.3458 20.0473L56.0575 27.3356C55.2765 28.1166 54.0163 28.1067 53.1543 27.416C50.8812 25.5944 48.196 24.3384 45.32 23.7664C41.7878 23.0638 38.1266 23.4244 34.7993 24.8026C31.472 26.1808 28.6282 28.5146 26.6273 31.5091C24.6265 34.5036 23.5586 38.0241 23.5586 41.6255C23.5586 45.2269 24.6265 48.7474 26.6273 51.7419C28.6282 54.7364 31.472 57.0703 34.7993 58.4485C38.1266 59.8267 41.7878 60.1873 45.32 59.4847C48.196 58.9126 50.8813 57.6566 53.1543 55.835C54.0163 55.1443 55.2765 55.1344 56.0575 55.9154L63.3458 63.2037Z" fill="#374983"/>
</g>
<g filter="url(#filter1_d_4043_1656)">
<circle cx="64.0648" cy="33.7288" r="6.50323" fill="#FCBC5C"/>
</g>
<g filter="url(#filter2_d_4043_1656)">
<circle cx="64.0648" cy="49.5228" r="6.50323" fill="#FCBC5C"/>
</g>
<g filter="url(#filter3_d_4043_1656)">
<path d="M9.66038 56.0702C9.2896 56.2315 9.11911 56.6632 9.28794 57.0307C11.3935 61.6131 14.4396 65.7047 18.2313 69.0379C22.0229 72.3711 26.4711 74.8677 31.2856 76.3686C31.6716 76.489 32.078 76.2645 32.1904 75.8762C32.3029 75.4878 32.0789 75.0825 31.693 74.9618C27.0852 73.521 22.828 71.1292 19.198 67.9381C15.5681 64.747 12.6504 60.8314 10.6309 56.4464C10.4618 56.0791 10.0312 55.9089 9.66038 56.0702Z" fill="#E3A953"/>
</g>
<defs>
<filter id="filter0_d_4043_1656" x="9.25146" y="9.10938" width="58.6763" height="69.0322" filterUnits="userSpaceOnUse" color-interpolation-filters="sRGB">
<feFlood flood-opacity="0" result="BackgroundImageFix"/>
<feColorMatrix in="SourceAlpha" type="matrix" values="0 0 0 0 0 0 0 0 0 0 0 0 0 0 0 0 0 0 127 0" result="hardAlpha"/>
<feOffset dx="2" dy="2"/>
<feGaussianBlur stdDeviation="1"/>
<feComposite in2="hardAlpha" operator="out"/>
<feColorMatrix type="matrix" values="0 0 0 0 0 0 0 0 0 0 0 0 0 0 0 0 0 0 0.25 0"/>
<feBlend mode="normal" in2="BackgroundImageFix" result="effect1_dropShadow_4043_1656"/>
<feBlend mode="normal" in="SourceGraphic" in2="effect1_dropShadow_4043_1656" result="shape"/>
</filter>
<filter id="filter1_d_4043_1656" x="57.5615" y="27.2256" width="17.0063" height="17.0068" filterUnits="userSpaceOnUse" color-interpolation-filters="sRGB">
<feFlood flood-opacity="0" result="BackgroundImageFix"/>
<feColorMatrix in="SourceAlpha" type="matrix" values="0 0 0 0 0 0 0 0 0 0 0 0 0 0 0 0 0 0 127 0" result="hardAlpha"/>
<feOffset dx="2" dy="2"/>
<feGaussianBlur stdDeviation="1"/>
<feComposite in2="hardAlpha" operator="out"/>
<feColorMatrix type="matrix" values="0 0 0 0 0 0 0 0 0 0 0 0 0 0 0 0 0 0 0.25 0"/>
<feBlend mode="normal" in2="BackgroundImageFix" result="effect1_dropShadow_4043_1656"/>
<feBlend mode="normal" in="SourceGraphic" in2="effect1_dropShadow_4043_1656" result="shape"/>
</filter>
<filter id="filter2_d_4043_1656" x="57.5615" y="43.0195" width="17.0063" height="17.0068" filterUnits="userSpaceOnUse" color-interpolation-filters="sRGB">
<feFlood flood-opacity="0" result="BackgroundImageFix"/>
<feColorMatrix in="SourceAlpha" type="matrix" values="0 0 0 0 0 0 0 0 0 0 0 0 0 0 0 0 0 0 127 0" result="hardAlpha"/>
<feOffset dx="2" dy="2"/>
<feGaussianBlur stdDeviation="1"/>
<feComposite in2="hardAlpha" operator="out"/>
<feColorMatrix type="matrix" values="0 0 0 0 0 0 0 0 0 0 0 0 0 0 0 0 0 0 0.25 0"/>
<feBlend mode="normal" in2="BackgroundImageFix" result="effect1_dropShadow_4043_1656"/>
<feBlend mode="normal" in="SourceGraphic" in2="effect1_dropShadow_4043_1656" result="shape"/>
</filter>
<filter id="filter3_d_4043_1656" x="9.22266" y="56.0088" width="26.9971" height="24.3926" filterUnits="userSpaceOnUse" color-interpolation-filters="sRGB">
<feFlood flood-opacity="0" result="BackgroundImageFix"/>
<feColorMatrix in="SourceAlpha" type="matrix" values="0 0 0 0 0 0 0 0 0 0 0 0 0 0 0 0 0 0 127 0" result="hardAlpha"/>
<feOffset dx="2" dy="2"/>
<feGaussianBlur stdDeviation="1"/>
<feComposite in2="hardAlpha" operator="out"/>
<feColorMatrix type="matrix" values="0 0 0 0 0 0 0 0 0 0 0 0 0 0 0 0 0 0 0.25 0"/>
<feBlend mode="normal" in2="BackgroundImageFix" result="effect1_dropShadow_4043_1656"/>
<feBlend mode="normal" in="SourceGraphic" in2="effect1_dropShadow_4043_1656" result="shape"/>
</filter>
</defs>
</svg>
